<svg width="64" height="16" viewBox="0 0 64 16" fill="none" xmlns="http://www.w3.org/2000/svg">
<path fill-rule="evenodd" clip-rule="evenodd" d="M60.173 10.1215L58.1744 12.842L60.0023 15.65H63.9993L60.173 10.1215Z" fill="#0782FF"/>
<path fill-rule="evenodd" clip-rule="evenodd" d="M60.1724 5.69715L64 0.00341797H60.0029L58.1738 2.97602L60.1724 5.69715Z" fill="#0782FF"/>
<path fill-rule="evenodd" clip-rule="evenodd" d="M52.6246 0.00341797H48.627L54.3151 7.90901L48.627 15.65H52.6246L58.3128 7.90901L52.6246 0.00341797Z" fill="#31383C"/>
<path d="M0 0H2.92997V15.6503H0V0Z" fill="#31383C"/>
<path d="M6.06172 0H9.46918L15.7198 10.4918H15.8934L15.7198 7.47541V0H18.6281V15.6503H15.5462L8.94829 4.56831H8.77466L8.94829 7.5847V15.6503H6.06172V0Z" fill="#31383C"/>
<path d="M21.7459 0H27.8229C28.4885 0 29.1106 0.10929 29.6894 0.327869C30.2682 0.531876 30.7673 0.823315 31.1869 1.20219C31.621 1.56648 31.961 1.99636 32.207 2.4918C32.453 2.98725 32.576 3.51913 32.576 4.08743C32.576 4.91803 32.3734 5.61749 31.9683 6.18579C31.5776 6.73953 31.0857 7.16211 30.4924 7.45355V7.62841C31.2882 7.91985 31.9249 8.37887 32.4023 9.00546C32.8943 9.61749 33.1403 10.3825 33.1403 11.3005C33.1403 11.9709 33.0028 12.5756 32.7279 13.1148C32.4674 13.6393 32.1057 14.0911 31.6427 14.4699C31.1797 14.8488 30.6371 15.1403 30.0149 15.3443C29.4072 15.5483 28.7489 15.6503 28.0399 15.6503H21.7459V0ZM27.6059 6.38251C28.2859 6.38251 28.8068 6.20036 29.1685 5.83606C29.5447 5.45719 29.7328 5.01275 29.7328 4.50273C29.7328 3.99271 29.5519 3.55556 29.1902 3.19126C28.8285 2.82696 28.3293 2.64481 27.6927 2.64481H24.6759V6.38251H27.6059ZM27.9314 12.9399C28.6693 12.9399 29.2336 12.7577 29.6243 12.3934C30.0149 12.0146 30.2103 11.5337 30.2103 10.9508C30.2103 10.3679 30.0077 9.88707 29.6026 9.5082C29.2119 9.11475 28.6259 8.91803 27.8446 8.91803H24.6759V12.9399H27.9314Z" fill="#31383C"/>
<path d="M41.0817 16C40.1702 16 39.3382 15.8543 38.5858 15.5628C37.8479 15.2568 37.2185 14.8197 36.6976 14.2514C36.1767 13.6831 35.7716 12.9982 35.4822 12.1967C35.1928 11.3807 35.0481 10.4554 35.0481 9.42076V0H37.9781V9.59563C37.9781 10.1202 38.0432 10.6011 38.1734 11.0383C38.3036 11.4754 38.499 11.8543 38.7594 12.1749C39.0199 12.4954 39.3454 12.7505 39.7361 12.9399C40.1267 13.1148 40.5753 13.2022 41.0817 13.2022C41.6026 13.2022 42.0584 13.1148 42.449 12.9399C42.8397 12.7505 43.1652 12.4954 43.4257 12.1749C43.6861 11.8543 43.8815 11.4754 44.0117 11.0383C44.1419 10.6011 44.207 10.1202 44.207 9.59563V0H47.137V9.42076C47.137 10.3971 46.9923 11.2933 46.7029 12.1093C46.428 12.9107 46.0229 13.6029 45.4875 14.1858C44.9666 14.7541 44.33 15.1985 43.5776 15.5191C42.8397 15.8397 42.0077 16 41.0817 16Z" fill="#31383C"/>
</svg>
